<svg version="1" xmlns="http://www.w3.org/2000/svg" width="933.333" height="933.333" viewBox="0 0 700.000000 700.000000"><path d="M325 87.7c-20.5 2.1-56.2 10.2-59.5 13.5-.7.7 9.5.8 31 .3 39.8-.9 66-.9 107 0 21.7.5 31.7.3 31-.3-3-3-37.5-11-56.7-13.1-8.9-1-44.5-1.3-52.8-.4zM114.5 115.2c-.3.7-.4 22-.3 47.3l.3 46 6.3-9.2 6.2-9.2V127h446v63.2l5.7 8.8c3.2 4.9 6.1 8.9 6.6 8.9.4.1.6-20.9.5-46.7l-.3-46.7-235.3-.3c-187.7-.2-235.4 0-235.7 1z"/><path d="M187 143.1c-25.3 20.4-45.5 43.2-61.7 69.7-36.2 58.8-47.6 130.1-31.8 197.7 13.2 56.1 46.2 108.5 91.3 144.8l8.4 6.7 11.1-.1h11.2L213 560c-1.4-1-6.5-4.8-11.4-8.4-45.5-33.2-80.5-84.7-94-138.4-17-67.2-6.6-136.8 29.2-194.5 16.9-27.4 43.8-55.8 70.2-74.1 4.7-3.3 8.9-6.3 9.5-6.8.5-.4-4.3-.8-10.5-.8l-11.5.1-7.5 6zM483 137.5c0 .2 3.4 2.7 7.5 5.5 38.6 26.1 72.1 66.8 89.9 109.3 9.5 22.5 15.9 47.3 18.5 70.9 1.6 14.2 1.4 43.8-.4 57.5-6.3 47.7-24 89.6-53.5 126.2-10.5 13-32.2 34-45 43.4-5.8 4.3-11.6 8.6-13 9.7l-2.5 1.9h11l11.1.1 8.4-6.7c11.6-9.1 31-28.7 40.7-40.9 28.7-36.2 46.4-76.1 54.5-123 1.9-11.2 2.2-16.5 2.3-40.9 0-30.4-.8-38-6.5-62-13.2-55.6-46.5-108-90.8-143.3l-10.3-8.2h-11c-6 0-10.9.2-10.9.5z"/><path d="M124.7 268.8c-.8 2.1-2.9 8.5-4.5 14.3-6.2 21.6-6.2 21.2-6.2 66.9 0 40.9.1 42.4 2.4 52.8 2.7 11.9 8.3 30.2 9.7 31.6.5.6.9-33.7.9-84.2 0-46.9-.2-85.2-.4-85.2s-1.1 1.7-1.9 3.8zM573 350c0 46.7.2 85 .4 85 .9 0 7.7-22 10.1-32.5 2.4-10.8 2.5-11.9 2.5-52.5 0-40.2-.1-41.8-2.4-52-2.4-10.6-9.3-33-10.2-33-.2 0-.4 38.2-.4 85zM114 538.8V586h235.5c187.5 0 235.7-.3 236-1.2.3-.7.4-22 .3-47.3l-.3-46-6.2 9.2-6.3 9.2V573H127v-62.9l-5.6-8.3c-3.1-4.6-6-8.7-6.5-9.3-.5-.5-.9 18.5-.9 46.3zM261 598c2.8 1.6 24.3 7.7 34.5 9.9 18.8 3.8 34.2 5.4 54.5 5.4 28.5 0 54.6-4 79.1-12.1l11.4-3.7-23-.3c-17.2-.2-26.4.1-36.5 1.4-17.2 2.2-46.2 2.2-62 0-12.8-1.8-60.8-2.3-58-.6z"/></svg>